<?xml version="1.0" encoding="UTF-8"?>
<svg id="Layer_1" xmlns="http://www.w3.org/2000/svg" viewBox="0 0 700 700">
  <path d="M526.86,382.6c2.46,5.9,9.7,7.86,14.95,4.22,13.11-9.09,30.71-14.64,48.95-14.64,54.87,0,91.68,40.29,91.68,100.72s-36.81,100.37-91.68,100.37c-10.27,0-20.26-1.92-28.86-5.43-6.46-2.63-13.51,2.25-13.51,9.23v51.07c0,2.43-2.43,4.86-5.21,4.86h-61.13c-2.78,0-5.21-2.43-5.21-4.86v-235.62c0-8.32,6.81-15.12,15.12-15.12h29.33c2.43,0,4.17,2.08,5.56,5.21h0ZM548.4,492.48c0,1.29.21,2.59.73,3.76,4.63,10.45,15.2,17.29,26.71,17.29,19.1,0,31.95-15.98,31.95-40.29s-12.85-41.68-31.95-41.68c-11.5,0-22.07,6.84-26.71,17.29-.52,1.18-.73,2.47-.73,3.76v39.85Z" fill="#937dff"/>
  <circle cx="580.9" cy="472.35" r="45.92" fill="#fff" stroke="#937dff" stroke-miterlimit="10" stroke-width="5"/>
  <path d="M311.72,382.6c2.46,5.9,9.7,7.86,14.95,4.22,13.11-9.09,30.71-14.64,48.95-14.64,54.87,0,91.68,40.29,91.68,100.72s-36.81,100.37-91.68,100.37c-10.27,0-20.26-1.92-28.86-5.43-6.46-2.63-13.51,2.25-13.51,9.23v51.07c0,2.43-2.43,4.86-5.21,4.86h-61.13c-2.78,0-5.21-2.43-5.21-4.86v-235.62c0-8.32,6.81-15.12,15.12-15.12h29.33c2.43,0,4.17,2.08,5.56,5.21h0ZM333.25,492.48c0,1.29.21,2.58.73,3.76,4.63,10.45,15.2,17.29,26.71,17.29,19.1,0,31.95-15.98,31.95-40.29s-12.85-41.68-31.95-41.68c-11.5,0-22.07,6.84-26.71,17.29-.52,1.18-.73,2.47-.73,3.76v39.85Z" fill="#937dff"/>
  <circle cx="365.64" cy="472.35" r="45.92" fill="#fff" stroke="#937dff" stroke-miterlimit="10" stroke-width="5"/>
  <path d="M44.25,360.56c-1.31-3.06-.44-6.11,2.18-8.29,24.87-15.71,59.76-24.87,94.66-24.87,75.46,0,110.36,39.69,110.36,126.5v105.08c0,7.94-6.5,14.44-14.44,14.44h-46.9c-3,0-6.06-2.37-6.82-5.27l-.25-.97c-1.38-5.31-7.58-7.6-12.1-4.5-15.75,10.8-39.87,17.29-66.06,17.29-50.16,0-83.32-32.28-82.88-80.27.44-42.75,33.59-71.1,82.88-71.1,17.32,0,33.42,4.29,44.65,11.48,5.22,3.34,12.06-.48,12.06-6.68h0c0-18.76-13.52-30.97-33.59-30.97-17.01,0-37.95,5.67-52.34,13.96-2.18,1.31-4.8-.44-6.54-3.49l-24.87-52.35ZM161.59,501.07c0-4.2-1.9-8.24-5.27-10.75-5.74-4.27-11.72-6.31-18.73-6.31-10.9,0-18.32,6.11-18.32,15.71s7.42,15.7,18.32,15.7c8.04,0,14.74-2.69,21.27-8.35,1.73-1.5,2.73-3.7,2.73-5.99h0Z" fill="#937dff"/>
  <circle cx="116.58" cy="503.89" r="45.92" fill="#fff" stroke="#937dff" stroke-miterlimit="10" stroke-width="5"/>
  <path d="M148.7,94.14c-6.22-13.1-19.52-22.17-34.98-22.17s-28.78,9.09-34.99,22.19c-2.38,4.35-3.75,9.19-3.75,14.31v205.31c0,.11.02.22.02.33,0,.13-.02.26-.02.39,0,21.4,17.35,38.75,38.75,38.75s38.75-17.35,38.75-38.75c0-.13-.02-.26-.02-.39,0-.11.02-.22.02-.33V108.46c0-5.12-1.38-9.97-3.76-14.32Z"/>
  <g>
    <path d="M374.06,296.48c0,62.62-42.46,104.36-105.8,104.36s-105.8-41.75-105.8-104,42.46-104.36,105.8-104.36,105.8,41.74,105.8,104ZM232.63,296.84c0,23.39,14.39,39.22,35.63,39.22s35.62-15.83,35.62-39.58-14.39-39.23-35.62-39.23-35.63,15.83-35.63,39.59Z"/>
    <circle cx="268.7" cy="297.24" r="38.75" fill="#fff"/>
  </g>
  <g>
    <circle cx="623.42" cy="168.11" r="38.75"/>
    <path d="M654.95,229.01c-7.38,7.44-17.97,12.12-29.77,12.12s-23.41-5.13-30.82-13.21c-2.89-3.16-8.51-1.14-8.51,2.99v149.65s0,.05,0,.07c.08,21.33,17.39,38.59,38.74,38.59,18.26,0,33.53-12.65,37.63-29.64.79-2.12,1.12-4.27,1.12-6.15v-151.26c0-4.05-5.43-6.15-8.4-3.16Z"/>
  </g>
  <g>
    <path d="M503.47,316.66c-5.56,11.11-22.23,18.41-41.68,18.41-50.7,0-84.39-36.47-84.39-91.34,0-61.47,31.26-97.94,84.39-97.94,26.74,0,47.93,7.29,56.96,19.8l6.25-9.72c2.09-3.13,5.21-5.21,7.99-5.21h36.81c3.13,0,5.21,2.08,5.21,5.21v168.09c0,52.44-47.58,87.52-106.62,87.52-34.38,0-64.95-7.99-81.96-21.88-2.09-1.73-2.78-4.17-2.09-5.9l17.71-43.07c1.04-2.43,3.13-3.47,5.21-2.08,14.93,12.16,37.86,19.45,61.13,19.45,21.88,0,35.08-11.46,35.08-31.26v-10.07ZM503.47,234.99c0-13.07-10.34-24.04-23.4-24.26-.18,0-.37,0-.56,0-17.37,0-27.44,12.16-27.44,32.99s10.07,33.34,27.44,33.34c.19,0,.37,0,.56,0,13.07-.22,23.4-11.19,23.4-24.26v-17.8Z"/>
    <circle cx="471.84" cy="242.74" r="38.75" fill="#fff"/>
  </g>
</svg>